<svg xmlns="http://www.w3.org/2000/svg" viewBox="0 0 800 280" fill="none">
  <defs>
    <linearGradient id="bg" x1="0" y1="0" x2="800" y2="280" gradientUnits="userSpaceOnUse">
      <stop offset="0%" stop-color="#0f0f23"/>
      <stop offset="100%" stop-color="#1a1a3e"/>
    </linearGradient>
    <linearGradient id="trail" x1="0" y1="0" x2="800" y2="0" gradientUnits="userSpaceOnUse">
      <stop offset="0%" stop-color="#6366f1"/>
      <stop offset="50%" stop-color="#8b5cf6"/>
      <stop offset="100%" stop-color="#a78bfa"/>
    </linearGradient>
    <linearGradient id="glow" x1="0" y1="0" x2="800" y2="0" gradientUnits="userSpaceOnUse">
      <stop offset="0%" stop-color="#6366f1" stop-opacity="0.3"/>
      <stop offset="50%" stop-color="#8b5cf6" stop-opacity="0.5"/>
      <stop offset="100%" stop-color="#a78bfa" stop-opacity="0.3"/>
    </linearGradient>
  </defs>

  <!-- Background -->
  <rect width="800" height="280" rx="12" fill="url(#bg)"/>

  <!-- Subtle grid -->
  <g stroke="#ffffff" stroke-opacity="0.03" stroke-width="1">
    <line x1="0" y1="70" x2="800" y2="70"/>
    <line x1="0" y1="140" x2="800" y2="140"/>
    <line x1="0" y1="210" x2="800" y2="210"/>
    <line x1="200" y1="0" x2="200" y2="280"/>
    <line x1="400" y1="0" x2="400" y2="280"/>
    <line x1="600" y1="0" x2="600" y2="280"/>
  </g>

  <!-- Trail line (the path) -->
  <path d="M 80 190 C 150 190, 170 130, 250 130 S 350 190, 400 190 S 470 100, 550 100 S 650 190, 720 190"
        stroke="url(#glow)" stroke-width="12" stroke-linecap="round" fill="none"/>
  <path d="M 80 190 C 150 190, 170 130, 250 130 S 350 190, 400 190 S 470 100, 550 100 S 650 190, 720 190"
        stroke="url(#trail)" stroke-width="3" stroke-linecap="round" fill="none"
        stroke-dasharray="8 4"/>

  <!-- Nodes on the trail -->
  <!-- Node 1: Source -->
  <circle cx="80" cy="190" r="16" fill="#1e1e3f" stroke="#6366f1" stroke-width="2"/>
  <circle cx="80" cy="190" r="6" fill="#6366f1"/>
  <text x="80" y="225" text-anchor="middle" fill="#9ca3af" font-family="monospace" font-size="11">source</text>

  <!-- Node 2: Messenger -->
  <circle cx="400" cy="190" r="16" fill="#1e1e3f" stroke="#8b5cf6" stroke-width="2"/>
  <circle cx="400" cy="190" r="6" fill="#8b5cf6"/>
  <text x="400" y="225" text-anchor="middle" fill="#9ca3af" font-family="monospace" font-size="11">messenger</text>

  <!-- Node 3: Social -->
  <circle cx="720" cy="190" r="16" fill="#1e1e3f" stroke="#a78bfa" stroke-width="2"/>
  <circle cx="720" cy="190" r="6" fill="#a78bfa"/>
  <text x="720" y="225" text-anchor="middle" fill="#9ca3af" font-family="monospace" font-size="11">social</text>

  <!-- JSONL snippets floating -->
  <g fill="#4ade80" font-family="monospace" font-size="9" opacity="0.5">
    <text x="160" y="120">{"act":"fetched"}</text>
    <text x="300" y="165">{"act":"selected"}</text>
    <text x="500" y="85">{"act":"posted"}</text>
    <text x="620" y="165">{"act":"posted"}</text>
  </g>

  <!-- Title -->
  <text x="400" y="52" text-anchor="middle" fill="white" font-family="system-ui, -apple-system, sans-serif" font-size="36" font-weight="bold" letter-spacing="8">TRAIL</text>
  <text x="400" y="76" text-anchor="middle" fill="#9ca3af" font-family="system-ui, -apple-system, sans-serif" font-size="13" letter-spacing="1">Tracking Records Across Isolated Logs</text>

  <!-- Tagline -->
  <text x="400" y="265" text-anchor="middle" fill="#6b7280" font-family="monospace" font-size="11">cross-MCP content tracking protocol v1</text>
</svg>
