<svg xmlns="http://www.w3.org/2000/svg" viewBox="0 0 800 420" font-family="Segoe UI, sans-serif">
<rect width="800" height="420" fill="#ffffff" rx="8"/>
<text x="64" y="30" fill="#1f2328" font-size="17" font-weight="700">★ Star History — timoncool/trail-spec</text>
<text x="776" y="30" fill="#1f2328" font-size="14" text-anchor="end">11 stars · updated 2026-08-10</text>
<line x1="64" y1="364.0" x2="776" y2="364.0" stroke="#d1d9e0" stroke-width="1"/><text x="54" y="368.0" fill="#1f2328" font-size="13" text-anchor="end">0</text><line x1="64" y1="277.8" x2="776" y2="277.8" stroke="#d1d9e0" stroke-width="1"/><text x="54" y="281.8" fill="#1f2328" font-size="13" text-anchor="end">3</text><line x1="64" y1="191.6" x2="776" y2="191.6" stroke="#d1d9e0" stroke-width="1"/><text x="54" y="195.6" fill="#1f2328" font-size="13" text-anchor="end">6</text><line x1="64" y1="134.2" x2="776" y2="134.2" stroke="#d1d9e0" stroke-width="1"/><text x="54" y="138.2" fill="#1f2328" font-size="13" text-anchor="end">8</text><line x1="64" y1="48.0" x2="776" y2="48.0" stroke="#d1d9e0" stroke-width="1"/><text x="54" y="52.0" fill="#1f2328" font-size="13" text-anchor="end">11</text>
<path d="M64.0,364.0 L64.0,335.3 L64.0,306.5 L64.3,277.8 L70.8,249.1 L133.8,220.4 L151.5,191.6 L213.3,162.9 L256.2,134.2 L278.7,105.5 L294.5,76.7 L587.4,48.0 L776.0,48.0" fill="none" stroke="#0969da" stroke-width="2.5" stroke-linejoin="round"/>
<circle cx="776.0" cy="48.0" r="4" fill="#0969da"/>
<text x="64.0" y="388" fill="#1f2328" font-size="13" text-anchor="middle">Apr 05, 2026</text><text x="301.3" y="388" fill="#1f2328" font-size="13" text-anchor="middle">May 17, 2026</text><text x="538.7" y="388" fill="#1f2328" font-size="13" text-anchor="middle">Jun 28, 2026</text><text x="776.0" y="388" fill="#1f2328" font-size="13" text-anchor="middle">Aug 10, 2026</text>
</svg>