<svg xmlns="http://www.w3.org/2000/svg" viewBox="0 0 800 420" font-family="Segoe UI, sans-serif">
<rect width="800" height="420" fill="#0d1117" rx="8"/>
<text x="64" y="30" fill="#e6edf3" font-size="17" font-weight="700">★ Star History — timoncool/trail-spec</text>
<text x="776" y="30" fill="#e6edf3" font-size="14" text-anchor="end">10 stars · updated 2026-07-07</text>
<line x1="64" y1="364.0" x2="776" y2="364.0" stroke="#30363d" stroke-width="1"/><text x="54" y="368.0" fill="#e6edf3" font-size="13" text-anchor="end">0</text><line x1="64" y1="300.8" x2="776" y2="300.8" stroke="#30363d" stroke-width="1"/><text x="54" y="304.8" fill="#e6edf3" font-size="13" text-anchor="end">2</text><line x1="64" y1="206.0" x2="776" y2="206.0" stroke="#30363d" stroke-width="1"/><text x="54" y="210.0" fill="#e6edf3" font-size="13" text-anchor="end">5</text><line x1="64" y1="111.2" x2="776" y2="111.2" stroke="#30363d" stroke-width="1"/><text x="54" y="115.2" fill="#e6edf3" font-size="13" text-anchor="end">8</text><line x1="64" y1="48.0" x2="776" y2="48.0" stroke="#30363d" stroke-width="1"/><text x="54" y="52.0" fill="#e6edf3" font-size="13" text-anchor="end">10</text>
<path d="M64.0,364.0 L64.0,332.4 L64.0,300.8 L64.4,269.2 L73.2,237.6 L159.0,206.0 L183.0,174.4 L267.1,142.8 L325.5,111.2 L356.2,79.6 L377.7,48.0 L776.0,48.0" fill="none" stroke="#4f8ff7" stroke-width="2.5" stroke-linejoin="round"/>
<circle cx="776.0" cy="48.0" r="4" fill="#4f8ff7"/>
<text x="64.0" y="388" fill="#e6edf3" font-size="13" text-anchor="middle">Apr 05, 2026</text><text x="301.3" y="388" fill="#e6edf3" font-size="13" text-anchor="middle">May 06, 2026</text><text x="538.7" y="388" fill="#e6edf3" font-size="13" text-anchor="middle">Jun 06, 2026</text><text x="776.0" y="388" fill="#e6edf3" font-size="13" text-anchor="middle">Jul 07, 2026</text>
</svg>