<svg xmlns="http://www.w3.org/2000/svg" viewBox="0 0 800 420" font-family="Segoe UI, sans-serif">
<rect width="800" height="420" fill="#0d1117" rx="8"/>
<text x="64" y="30" fill="#e6edf3" font-size="17" font-weight="700">★ Star History — timoncool/trail-spec</text>
<text x="776" y="30" fill="#e6edf3" font-size="14" text-anchor="end">11 stars · updated 2026-07-13</text>
<line x1="64" y1="364.0" x2="776" y2="364.0" stroke="#30363d" stroke-width="1"/><text x="54" y="368.0" fill="#e6edf3" font-size="13" text-anchor="end">0</text><line x1="64" y1="277.8" x2="776" y2="277.8" stroke="#30363d" stroke-width="1"/><text x="54" y="281.8" fill="#e6edf3" font-size="13" text-anchor="end">3</text><line x1="64" y1="191.6" x2="776" y2="191.6" stroke="#30363d" stroke-width="1"/><text x="54" y="195.6" fill="#e6edf3" font-size="13" text-anchor="end">6</text><line x1="64" y1="134.2" x2="776" y2="134.2" stroke="#30363d" stroke-width="1"/><text x="54" y="138.2" fill="#e6edf3" font-size="13" text-anchor="end">8</text><line x1="64" y1="48.0" x2="776" y2="48.0" stroke="#30363d" stroke-width="1"/><text x="54" y="52.0" fill="#e6edf3" font-size="13" text-anchor="end">11</text>
<path d="M64.0,364.0 L64.0,335.3 L64.0,306.5 L64.3,277.8 L72.7,249.1 L153.5,220.4 L176.1,191.6 L255.3,162.9 L310.4,134.2 L339.3,105.5 L359.5,76.7 L735.1,48.0 L776.0,48.0" fill="none" stroke="#4f8ff7" stroke-width="2.5" stroke-linejoin="round"/>
<circle cx="776.0" cy="48.0" r="4" fill="#4f8ff7"/>
<text x="64.0" y="388" fill="#e6edf3" font-size="13" text-anchor="middle">Apr 05, 2026</text><text x="301.3" y="388" fill="#e6edf3" font-size="13" text-anchor="middle">May 08, 2026</text><text x="538.7" y="388" fill="#e6edf3" font-size="13" text-anchor="middle">Jun 10, 2026</text><text x="776.0" y="388" fill="#e6edf3" font-size="13" text-anchor="middle">Jul 13, 2026</text>
</svg>